<?xml version="1.0" encoding="UTF-8"?>
<svg width="150px" height="150px" viewBox="0 0 150 150" version="1.1" xmlns="http://www.w3.org/2000/svg" xmlns:xlink="http://www.w3.org/1999/xlink">
    <!-- Generator: Sketch 54.1 (76490) - https://sketchapp.com -->
    <title>ico-check</title>
    <desc>Created with Sketch.</desc>
    <g id="ico-check" stroke="none" stroke-width="1" fill="none" fill-rule="evenodd">
        <g id="check-circle" transform="translate(14.000000, 17.000000)" fill-rule="nonzero">
            <path d="M115.999999,58.0322994 C115.992656,70.8745938 111.762005,82.9496594 104.454182,92.724463 C97.1463325,102.499302 86.7612913,109.973863 74.4451981,113.615117 C62.1290796,117.256378 49.3488516,116.630615 37.9000871,112.401156 C26.4513506,108.171707 16.3340684,100.338577 9.34381979,89.5650807 C2.35359523,78.7916216 -0.677021408,66.3610221 0.126031052,54.1831957 C0.92908391,42.0053632 5.56580912,30.0803083 13.9102481,20.3179429 C22.2547182,10.5555411 33.3130291,4.11862837 45.2180437,1.42901777 C57.1230777,-1.26059719 69.8748216,-0.202899506 81.6061431,5.02394138 C82.4774806,5.41216213 83.108974,6.11677788 83.4255603,6.94217185 C83.742131,7.76752541 83.7438193,8.71363888 83.3555914,9.58488228 C82.9673423,10.4561731 82.2626569,11.087607 81.43721,11.4041734 C80.6117228,11.7207554 79.6654558,11.7224454 78.7940709,11.3342035 C68.4602511,6.73001362 57.2275673,5.79831176 46.740728,8.16752464 C36.2538695,10.5367419 26.5128616,16.2068843 19.1624084,24.8063613 C11.8119241,33.4058746 7.72751696,43.9104699 7.02012055,54.6377275 C6.31272375,65.3649912 8.98234091,76.3149217 15.1399253,85.8051009 C21.2974856,95.2952429 30.2095744,102.195292 40.2945242,105.920925 C50.3794459,109.646546 61.6372196,110.197766 72.4861713,106.990272 C83.3349783,103.782822 92.4828062,97.198787 98.9201074,88.5889473 C105.357667,79.9787611 109.084471,69.342615 109.09094,58.0303245 L109.09094,52.9579323 C109.09094,52.0040999 109.477591,51.1405724 110.102704,50.5154993 C110.727862,49.8903804 111.591513,49.5037472 112.54547,49.5037472 C113.499427,49.5037472 114.363078,49.8903804 114.988236,50.5154993 C115.613349,51.1405725 116,52.0041 116,52.9579318 L115.999999,58.0322994 Z" id="Combined-Shape" fill="#B6BDC6"></path>
            <path d="M122.407393,13.4547452 L62.5948931,74.3778222 C61.5331552,75.4592741 60.1415776,76 58.75,76 C57.3584224,76 55.9668448,75.4592741 54.9051069,74.3778222 L38.5926069,57.7624376 C37.530869,56.6809857 37,55.2635698 37,53.8461538 C37,52.4287379 37.530869,51.011322 38.5926069,49.9298701 C39.6543448,48.8484183 41.0459224,48.3076923 42.4375,48.3076923 C43.8290776,48.3076923 45.2206552,48.8484183 46.2823931,49.9298701 L58.75,62.628971 L114.717607,5.62217783 C115.779345,4.54072594 117.170922,4 118.5625,4 C119.954078,4 121.345655,4.54072594 122.407393,5.62217783 C123.469131,6.70362971 124,8.12104563 124,9.53846154 C124,10.9558775 123.469131,12.3732934 122.407393,13.4547452 L122.407393,13.4547452 Z" id="Path" fill="#004B9A"></path>
        </g>
    </g>
</svg>